<?xml version="1.0" encoding="utf-8"?>
<!-- Generator: Adobe Illustrator 23.0.1, SVG Export Plug-In . SVG Version: 6.00 Build 0)  -->
<svg version="1.1" id="Layer_1" xmlns="http://www.w3.org/2000/svg" xmlns:xlink="http://www.w3.org/1999/xlink" x="0px" y="0px"
	 viewBox="0 0 612 792" style="enable-background:new 0 0 612 792;" xml:space="preserve">
<style type="text/css">
	.st0{fill:none;stroke:#000000;stroke-width:1.7938;stroke-miterlimit:10;}
	.st1{fill:#020202;}
	.st2{fill:none;}
</style>
<g>
	<path d="M188.2,321.53c3.64,5.52,5.76,12.12,5.76,19.23c0,19.3-15.65,34.94-34.94,34.94s-34.94-15.65-34.94-34.94
		c0-19.3,15.65-34.94,34.94-34.94c4.35,0,8.51,0.8,12.35,2.25c-6.4-3.1-13.58-4.84-21.16-4.84c-26.83,0-48.58,21.75-48.58,48.58
		s21.75,48.58,48.58,48.58s48.58-21.75,48.58-48.58C198.79,340.36,194.82,329.84,188.2,321.53z"/>
	<path class="st0" d="M141.71,354.94c-1.83-2.77-2.89-6.08-2.89-9.64c0-9.68,7.84-17.52,17.52-17.52s17.52,7.84,17.52,17.52
		c0,9.68-7.84,17.52-17.52,17.52c-2.18,0-4.27-0.4-6.19-1.13c3.21,1.55,6.81,2.43,10.61,2.43c13.45,0,24.35-10.9,24.35-24.35
		s-10.9-24.35-24.35-24.35c-13.45,0-24.35,10.9-24.35,24.35C136.41,345.51,138.39,350.78,141.71,354.94z"/>
	<circle class="st1" cx="155.1" cy="345.89" r="8.72"/>
	<rect x="100.87" y="302.14" class="st2" width="98.6" height="98.74"/>
</g>
<g>
	<path d="M268.36,384.49l-6.03-14.99h-32.27l-6.03,14.99h-6.03l24.96-60.97h6.49l24.96,60.97H268.36z M246.24,329.09l-14.44,35.65
		h28.8L246.24,329.09z"/>
	<path d="M283.35,384.49v-60.97h19.47c18.92,0,30.81,13.8,30.81,30.53c0,16.91-11.88,30.44-30.81,30.44H283.35z M328.14,354.05
		c0-14.26-9.14-25.78-25.32-25.78h-14.26v51.47h14.26C318.91,379.73,328.14,368.31,328.14,354.05z"/>
	<path d="M344.33,354.05c0-17.83,11.7-31.54,29.62-31.54c17.83,0,29.62,13.71,29.62,31.54s-11.79,31.54-29.62,31.54
		C356.03,385.59,344.33,371.87,344.33,354.05z M398.08,354.05c0-15.45-9.51-26.78-24.13-26.78c-14.72,0-24.13,11.34-24.13,26.78
		c0,15.36,9.42,26.78,24.13,26.78C388.57,380.83,398.08,369.4,398.08,354.05z"/>
	<path d="M430.81,384.49v-26.05l-24.22-34.92h6.31l20.57,29.98l20.57-29.98h6.31l-24.22,34.92v26.05H430.81z"/>
	<path d="M507.78,384.49l-6.03-14.99h-32.27l-6.03,14.99h-6.03l24.96-60.97h6.49l24.96,60.97H507.78z M485.66,329.09l-14.44,35.65
		h28.8L485.66,329.09z"/>
</g>
<g>
	<path d="M172.46,441.29c0-10.83,7.87-18.23,17.85-18.23c5.6,0,9.88,2.48,12.84,6.23l-2.54,1.64c-2.22-3.06-6.08-5.12-10.3-5.12
		c-8.24,0-14.69,6.29-14.69,15.48c0,9.09,6.44,15.48,14.69,15.48c4.23,0,8.08-2.06,10.3-5.12l2.59,1.58
		c-3.17,3.86-7.29,6.29-12.89,6.29C180.33,459.51,172.46,452.12,172.46,441.29z"/>
	<path d="M209.12,458.88v-35.24h2.75v35.24H209.12z"/>
	<path d="M219.69,427.24c0-1.16,1-2.06,2.11-2.06c1.16,0,2.11,0.9,2.11,2.06s-0.95,2.11-2.11,2.11
		C220.69,429.35,219.69,428.4,219.69,427.24z M220.43,458.88v-25.51h2.75v25.51H220.43z"/>
	<path d="M230.3,446.1c0-7.4,5.18-13.36,12.26-13.36c7.77,0,12.04,6.13,12.04,13.52V447h-21.34c0.26,5.55,3.96,10.14,9.98,10.14
		c3.22,0,6.18-1.21,8.35-3.54l1.43,1.8c-2.54,2.64-5.76,4.12-9.98,4.12C235.59,459.51,230.3,453.97,230.3,446.1z M242.51,435.11
		c-6.02,0-9.03,5.28-9.24,9.72h18.54C251.75,440.5,248.9,435.11,242.51,435.11z"/>
	<path d="M278.9,458.88v-17.27c0-4.91-2.48-6.39-6.18-6.39c-3.27,0-6.66,2.06-8.29,4.38v19.28h-2.75v-25.51h2.75v3.86
		c1.85-2.22,5.49-4.49,9.19-4.49c5.18,0,8.03,2.54,8.03,8.29v17.86H278.9z"/>
	<path d="M290.73,453.97V435.8h-4.23v-2.43h4.23v-6.97h2.8v6.97h5.18v2.43h-5.18v17.75c0,2.06,0.85,3.49,2.64,3.49
		c1.22,0,2.27-0.58,2.85-1.21l1.06,2.11c-1,0.95-2.22,1.58-4.33,1.58C292.37,459.51,290.73,457.45,290.73,453.97z"/>
	<path d="M318.52,458.88v-35.24h13.21c6.76,0,10.62,4.75,10.62,10.3s-3.91,10.3-10.62,10.3h-10.2v14.63H318.52z M339.17,433.95
		c0-4.44-3.06-7.55-7.76-7.55h-9.88v15.11h9.88C336.11,441.5,339.17,438.33,339.17,433.95z"/>
	<path d="M346.52,446.1c0-7.45,4.75-13.36,12.2-13.36c7.55,0,12.31,5.92,12.31,13.36c0,7.45-4.75,13.42-12.31,13.42
		C351.27,459.51,346.52,453.55,346.52,446.1z M368.07,446.1c0-5.65-3.33-10.88-9.35-10.88c-5.92,0-9.3,5.23-9.3,10.88
		c0,5.71,3.38,10.94,9.3,10.94C364.74,457.03,368.07,451.8,368.07,446.1z"/>
	<path d="M378.11,458.88v-25.51h2.75v4.38c2.17-2.85,5.07-4.91,8.61-4.91v3.01c-0.48-0.11-0.85-0.11-1.37-0.11
		c-2.59,0-6.07,2.32-7.24,4.54v18.59H378.11z"/>
	<path d="M395.38,453.97V435.8h-4.23v-2.43h4.23v-6.97h2.8v6.97h5.18v2.43h-5.18v17.75c0,2.06,0.84,3.49,2.64,3.49
		c1.21,0,2.27-0.58,2.85-1.21l1.06,2.11c-1,0.95-2.22,1.58-4.33,1.58C397.02,459.51,395.38,457.45,395.38,453.97z"/>
	<path d="M425.59,458.88v-3.01c-2.27,2.48-5.12,3.64-8.66,3.64c-4.38,0-8.93-3.01-8.93-8.5c0-5.55,4.49-8.45,8.93-8.45
		c3.54,0,6.44,1.16,8.66,3.65v-5.18c0-3.8-3.06-5.86-6.81-5.86c-3.22,0-5.71,1.11-8.03,3.75l-1.53-1.9c2.64-2.85,5.6-4.28,9.83-4.28
		c5.18,0,9.3,2.48,9.3,8.19v17.96H425.59z M425.59,453.86v-5.6c-1.8-2.38-4.65-3.54-7.71-3.54c-4.17,0-6.97,2.69-6.97,6.34
		c0,3.59,2.8,6.29,6.97,6.29C420.95,457.35,423.8,456.19,425.59,453.86z"/>
	<path d="M436.9,458.88v-35.24h2.75v35.24H436.9z"/>
</g>
<rect x="98.12" y="299.18" class="st2" width="417.8" height="162.63"/>
</svg>
